<svg width="1043" height="577" xmlns="http://www.w3.org/2000/svg" xmlns:xlink="http://www.w3.org/1999/xlink">
 <defs>
  <linearGradient id="imagebot_61">
   <stop stop-color="#5d932b" id="imagebot_140" offset="0"/>
   <stop stop-color="#5d932b" stop-opacity="0" id="imagebot_139" offset="1"/>
  </linearGradient>
  <linearGradient id="imagebot_62">
   <stop stop-color="#a0602c" id="imagebot_138" offset="0"/>
   <stop stop-color="#a0602c" stop-opacity="0" id="imagebot_137" offset="1"/>
  </linearGradient>
  <linearGradient id="imagebot_81">
   <stop stop-color="#21a29a" id="imagebot_136" offset="0"/>
   <stop stop-color="#21a29a" stop-opacity="0" id="imagebot_135" offset="1"/>
  </linearGradient>
  <linearGradient id="imagebot_82">
   <stop stop-color="#ffffff" id="imagebot_134" offset="0"/>
   <stop stop-color="#ffffff" stop-opacity="0" id="imagebot_133" offset="1"/>
  </linearGradient>
  <linearGradient id="imagebot_83">
   <stop stop-color="#fbfbfb" id="imagebot_132" offset="0"/>
   <stop stop-color="#fbfbfb" stop-opacity="0" id="imagebot_131" offset="1"/>
  </linearGradient>
  <linearGradient id="imagebot_84">
   <stop stop-color="#1ec58d" id="imagebot_130" offset="0"/>
   <stop stop-color="#1ec58d" stop-opacity="0" id="imagebot_129" offset="1"/>
  </linearGradient>
  <linearGradient id="imagebot_72">
   <stop stop-color="#858be9" id="imagebot_124" offset="0"/>
   <stop stop-color="#858be9" stop-opacity="0" id="imagebot_123" offset="1"/>
  </linearGradient>
  <linearGradient id="imagebot_71">
   <stop stop-color="#a0beeb" id="imagebot_122" offset="0"/>
   <stop stop-color="#a0beeb" stop-opacity="0" id="imagebot_121" offset="1"/>
  </linearGradient>
  <linearGradient id="imagebot_70">
   <stop stop-color="#97e9c5" id="imagebot_120" offset="0"/>
   <stop stop-color="#97e9c5" stop-opacity="0" id="imagebot_119" offset="1"/>
  </linearGradient>
  <linearGradient id="imagebot_69">
   <stop stop-color="#bcf38a" id="imagebot_118" offset="0"/>
   <stop stop-color="#bcf38a" stop-opacity="0" id="imagebot_117" offset="1"/>
  </linearGradient>
  <linearGradient id="imagebot_68">
   <stop stop-color="#dafd73" id="imagebot_116" offset="0"/>
   <stop stop-color="#dafd73" stop-opacity="0" id="imagebot_115" offset="1"/>
  </linearGradient>
  <linearGradient id="imagebot_67">
   <stop stop-color="#f4dd59" id="imagebot_114" offset="0"/>
   <stop stop-color="#f4dd59" stop-opacity="0" id="imagebot_113" offset="1"/>
  </linearGradient>
  <linearGradient id="imagebot_66">
   <stop stop-color="#ecb65e" id="imagebot_112" offset="0"/>
   <stop stop-color="#ecb65e" stop-opacity="0" id="imagebot_111" offset="1"/>
  </linearGradient>
  <linearGradient id="imagebot_65">
   <stop stop-color="#d66f55" id="imagebot_110" offset="0"/>
   <stop stop-color="#d66f55" stop-opacity="0" id="imagebot_109" offset="1"/>
  </linearGradient>
  <linearGradient id="imagebot_64">
   <stop stop-color="#e76869" id="imagebot_108" offset="0"/>
   <stop stop-color="#e76869" stop-opacity="0" id="imagebot_107" offset="1"/>
  </linearGradient>
  <linearGradient id="imagebot_63">
   <stop stop-color="#f0a9de" id="imagebot_106" offset="0"/>
   <stop stop-color="#f0a9de" stop-opacity="0" id="imagebot_105" offset="1"/>
  </linearGradient>
  <radialGradient r="7.90009" fy="806.71405" fx="50.72951" cy="806.71405" cx="50.72951" gradientTransform="matrix(1,0,0,0.855346,89.94146,331.4297)" gradientUnits="userSpaceOnUse" id="imagebot_13" xlink:href="#imagebot_83"/>
  <radialGradient gradientUnits="userSpaceOnUse" gradientTransform="matrix(1 0 0 0.855346 39.9207 -338.634)" r="7.90009" fy="806.71405" fx="50.72951" cy="806.71405" cx="50.72951" id="imagebot_5" xlink:href="#imagebot_82"/>
  <linearGradient y2="0.5" x2="1.01265" y1="0.5" x1="-0.01265" id="imagebot_19" xlink:href="#imagebot_72"/>
  <linearGradient y2="0.5" x2="1.01198" y1="0.5" x1="-0.01198" id="imagebot_21" xlink:href="#imagebot_71"/>
  <linearGradient y2="0.5" x2="1.01434" y1="0.5" x1="-0.01434" id="imagebot_23" xlink:href="#imagebot_70"/>
  <linearGradient y2="0.47995" x2="1.0177" y1="0.47995" x1="-0.06852" id="imagebot_25" xlink:href="#imagebot_69"/>
  <linearGradient y2="0.5" x2="1.01639" y1="0.5" x1="-0.01639" id="imagebot_27" xlink:href="#imagebot_68"/>
  <linearGradient y2="0.5" x2="1" y1="0.5" x1="0" id="imagebot_29" xlink:href="#imagebot_67"/>
  <linearGradient y2="0.49218" x2="1" y1="0.49218" x1="-0.00911" id="imagebot_31" xlink:href="#imagebot_66"/>
  <linearGradient y2="0.5" x2="1.01019" y1="0.5" x1="-0.01019" id="imagebot_33" xlink:href="#imagebot_65"/>
  <linearGradient y2="0.5" x2="1" y1="0.5" x1="0" id="imagebot_35" xlink:href="#imagebot_64"/>
  <linearGradient y2="0.5" x2="1" y1="0.5" x1="0" id="imagebot_37" xlink:href="#imagebot_63"/>
  <linearGradient y2="0.5" x2="1.0026" y1="-0.21065" x1="0.43405" id="imagebot_53" xlink:href="#imagebot_62"/>
  <linearGradient y2="0.57847" x2="0.51676" y1="-0.08851" x1="0.18204" id="imagebot_55" xlink:href="#imagebot_61"/>
  <linearGradient gradientUnits="userSpaceOnUse" y2="-Infinity" x2="-367.84763" y1="-Infinity" x1="-422.89609" id="imagebot_141" xlink:href="#imagebot_81"/>
  <linearGradient gradientTransform="translate(89.94146,214.7352)" y2="Infinity" x2="-370.89115" y1="Infinity" x1="-421.53959" gradientUnits="userSpaceOnUse" id="imagebot_142" xlink:href="#imagebot_84"/>
 </defs>
 <g id="imagebot_2">
  <path transform="translate(3.16205 10.2304) matrix(1 0 0 1 -5.16394 -75.0572)" fill="#3d5c20" fill-rule="evenodd" stroke="black" stroke-width="4.4" stroke-miterlimit="4" id="imagebot_60" d="M 200.188 482.993 L 317.835 455.963 C 317.835 455.963 305.514 408.152 245.361 422.629 C 187.87 437.695 200.188 482.993 200.188 482.993 Z"/>
  <path transform="translate(3.16205 10.2304) matrix(1 0 0 1 -5.16394 -75.0572)" fill="#3d5c20" fill-rule="evenodd" stroke="black" stroke-width="4.4" stroke-miterlimit="4" id="imagebot_59" d="M 904.896 575.864 L 1025.58 578.302 C 1025.58 578.302 1025.28 528.93 963.411 528.32 C 903.982 528.93 904.896 575.864 904.896 575.864 Z"/>
  <path transform="translate(3.16205 10.2304) matrix(1 0 0 1 -5.16394 -75.0572)" fill="#3d5c20" fill-rule="evenodd" stroke="black" stroke-width="4.4" stroke-miterlimit="4" d="M 310.111 591.198 L 430.798 583.656 C 430.798 583.656 430.493 534.309 368.626 538.816 C 309.197 544.34 310.111 591.198 310.111 591.198 Z" id="imagebot_58"/>
  <path transform="translate(3.16205 10.2304) matrix(1 0 0 1 -5.16394 -75.0572)" fill="#939ba8" fill-rule="evenodd" stroke="black" stroke-width="4.4" stroke-miterlimit="4" id="imagebot_57" d="M 281.002 289.923 C 276.679 291.261 266.683 293.854 259.899 295.55 C 252.882 297.304 249.024 299.771 241.609 299.771 C 236.477 299.771 229.36 304.24 224.726 305.398 C 219.297 306.756 213.115 312.522 207.844 313.84 C 202.929 315.069 198.169 321.934 196.588 325.095 C 193.184 331.904 198.765 335.521 203.623 339.164 C 210.432 344.271 216.615 345.929 223.319 347.606 C 229.201 349.076 235.048 353.47 240.202 356.047 C 245.247 358.569 250.384 363.747 252.864 368.709 C 256.315 375.609 260.509 380.997 262.713 389.813 C 264.355 396.381 265.707 402.835 268.34 408.102 C 271.001 413.423 272.231 423.665 273.968 430.613 C 276.189 439.498 277.596 443.717 279.596 451.716 C 281.273 458.425 286.276 463.671 289.444 470.006 C 292.787 476.693 297.739 486.596 300.699 492.516 C 304.16 499.438 306.281 503.711 310.547 509.399 C 315.721 516.297 318.175 522.655 323.209 527.689 C 328.798 533.277 332.454 536.933 337.278 541.758 C 343.837 548.316 345.618 551.504 351.347 557.234 C 356.284 562.171 366.057 567.338 372.451 569.896 C 378.627 572.366 383.592 579.659 389.334 583.965 C 397.615 590.176 413.921 592.574 424.506 595.22 C 431.645 597.005 439.681 600.772 445.61 602.255 C 452.689 604.024 463.113 608.13 469.527 610.696 C 482.397 615.844 491.986 615.103 506.107 619.138 C 518.234 622.602 526.308 622.781 539.872 626.172 C 557.573 630.597 575.109 631.8 593.335 631.8 C 606.211 631.8 620.497 631.556 632.728 634.613 C 644.203 637.482 660.229 634.613 672.121 634.613 C 683.486 634.613 696.788 634.801 707.294 637.427 C 717.66 640.019 729.941 638.834 741.059 638.834 C 752.314 638.834 763.57 638.834 774.825 638.834 C 785.281 638.834 795.749 638.026 805.777 636.02 C 819.747 633.226 833.112 625.649 842.356 621.951 C 852.929 617.722 858.585 613.078 870.494 610.696 C 884.443 607.906 894.352 600.511 904.26 598.034 C 915.16 595.309 933.98 582.412 942.246 575.524 C 955.137 564.781 969.513 558.105 980.232 547.386 C 991.05 536.568 1000.56 525.907 1009.78 513.62 C 1014.48 507.348 1018.33 497.866 1021.03 491.109 C 1024.94 481.344 1033.64 476.481 1037.92 465.785 C 1038.16 465.169 1038.85 464.847 1039.32 464.378 C 1043.11 460.591 1040.73 435.408 1040.73 429.206 C 1040.73 416.967 1039.32 405.094 1039.32 392.626 C 1039.32 387.104 1037.6 377.315 1036.51 372.93 C 1034.75 365.892 1030.87 358.831 1028.07 353.233 C 1023.79 344.67 1026.22 342.941 1019.63 336.35 C 1014.74 331.465 1012.06 327.641 1006.96 325.095 C 1001.77 322.5 1000.35 318.27 994.301 315.247 C 987.811 312.002 982.317 309.789 976.012 308.212 C 967.571 306.102 963.845 300.722 956.315 296.957 C 948.096 292.848 942.138 287.055 933.805 282.888 C 929.576 280.774 921.532 276.243 918.329 273.04 C 914.622 269.333 904.859 265.602 900.039 263.191 C 894.86 260.602 890.629 257.08 885.97 254.75 C 880.155 251.842 876.493 249.567 869.087 247.716 C 863.079 246.213 854.318 243.848 847.984 240.681 C 843.534 238.456 833.596 237.867 828.287 237.867 C 820.853 237.867 812.489 233.918 805.777 232.24 C 798.782 230.491 789.184 232.24 781.859 232.24 C 775.348 232.24 768.319 228.019 760.756 228.019 C 753.252 228.019 745.749 228.019 738.245 228.019 C 728.854 228.019 718.352 223.798 707.294 223.798 C 699.759 223.798 689.653 222.521 681.969 220.984 C 674.288 219.448 663.605 222.391 655.238 222.391 C 650.157 222.391 639.268 223.57 632.728 225.205 C 624.659 227.222 614.108 227.75 607.404 229.426 C 599.182 231.481 590.434 230.569 582.079 232.24 C 571.866 234.282 563.255 234.484 555.348 236.46 C 547.409 238.445 540.248 240.681 531.431 240.681 C 526.161 240.681 516.597 247.907 511.734 249.122 C 503.498 251.181 493.043 254.499 486.41 256.157 C 477.938 258.275 467.985 257.31 459.679 258.971 C 449.65 260.977 440.696 263.191 430.134 263.191 C 420.223 263.191 410.95 266.58 401.996 268.819 C 392.135 271.284 384.631 273.512 375.265 275.854 C 363.849 278.708 350.547 277.661 340.092 282.888 C 330.049 287.91 310.384 292.736 299.292 292.736 C 292.249 292.736 287.919 292.689 281.002 289.923 Z"/>
  <path transform="translate(3.16205 10.2304) matrix(1 0 0 1 -5.16394 -75.0572)" fill="#3d5c20" fill-rule="evenodd" stroke="black" stroke-width="4.4" stroke-miterlimit="4" d="M 363.605 371.159 C 343.092 382.14 319.052 381.261 296.722 378.441 C 260.516 378.407 213.824 340.375 184.124 320.741 C 137.392 277.249 125.298 277.718 79.1822 279.778 C 36.3376 281.09 5.75575 340.887 7.42942 374.934 C 9.41 390.706 26.8307 395.164 44.7432 396.007 C 50.3497 398.5 74.2776 383.673 49.8949 401.779 C 32.2717 410.892 17.8742 415.151 18.2382 425.365 C 18.307 427.294 18.9022 429.436 20.1017 431.863 C 25.8148 451.186 50.8955 454.903 69.4047 456.283 C 107.834 449.703 135.95 426.041 169.341 442.518 C 206.204 457.34 224.365 462.072 283.511 488.423 C 351.935 491.847 324.173 495.217 344.884 481.613 C 350.961 478.263 368.651 497.793 375.543 496.508" id="imagebot_56"/>
  <path transform="translate(3.16205 10.2304) matrix(1 0 0 1 -5.16394 -75.0572)" fill="url(#imagebot_55)" fill-rule="evenodd" stroke="black" stroke-width="4.4" stroke-miterlimit="4" id="imagebot_54" d="M 363.605 371.159 C 343.092 382.14 319.052 381.261 296.722 378.441 C 260.516 378.407 213.824 340.375 184.124 320.741 C 137.392 277.249 125.298 277.718 79.1822 279.778 C 36.3376 281.09 5.75575 340.887 7.42942 374.934 C 9.41 390.706 26.8307 395.164 44.7432 396.007 C 50.3497 398.5 74.2776 383.673 49.8949 401.779 C 32.2717 410.892 17.8742 415.151 18.2382 425.365 C 18.307 427.294 18.9022 429.436 20.1017 431.863 C 25.8148 451.186 50.8955 454.903 69.4047 456.283 C 107.834 449.703 135.95 426.041 169.341 442.518 C 206.204 457.34 224.365 462.072 283.511 488.423 C 351.935 491.847 324.173 495.217 344.884 481.613 C 350.961 478.263 368.651 497.793 375.543 496.508"/>
  <path transform="translate(3.16205 10.2304) matrix(1 0 0 1 -5.16394 -75.0572)" fill="url(#imagebot_53)" fill-rule="evenodd" stroke="black" stroke-width="4.4" stroke-miterlimit="4" d="M 281.002 289.923 C 276.679 291.261 266.683 293.854 259.899 295.55 C 252.882 297.304 249.024 299.771 241.609 299.771 C 236.477 299.771 229.36 304.24 224.726 305.398 C 219.297 306.756 213.115 312.522 207.844 313.84 C 202.929 315.069 198.169 321.934 196.588 325.095 C 193.184 331.904 198.765 335.521 203.623 339.164 C 210.432 344.271 216.615 345.929 223.319 347.606 C 229.201 349.076 235.048 353.47 240.202 356.047 C 245.247 358.569 250.384 363.747 252.864 368.709 C 256.315 375.609 260.509 380.997 262.713 389.813 C 264.355 396.381 265.707 402.835 268.34 408.102 C 271.001 413.423 272.231 423.665 273.968 430.613 C 276.189 439.498 277.596 443.717 279.596 451.716 C 281.273 458.425 286.276 463.671 289.444 470.006 C 292.787 476.693 297.739 486.596 300.699 492.516 C 304.16 499.438 306.281 503.711 310.547 509.399 C 315.721 516.297 318.175 522.655 323.209 527.689 C 328.798 533.277 332.454 536.933 337.278 541.758 C 343.837 548.316 345.618 551.504 351.347 557.234 C 356.284 562.171 366.057 567.338 372.451 569.896 C 378.627 572.366 383.592 579.659 389.334 583.965 C 397.615 590.176 413.921 592.574 424.506 595.22 C 431.645 597.005 439.681 600.772 445.61 602.255 C 452.689 604.024 463.113 608.13 469.527 610.696 C 482.397 615.844 491.986 615.103 506.107 619.138 C 518.234 622.602 526.308 622.781 539.872 626.172 C 557.573 630.597 575.109 631.8 593.335 631.8 C 606.211 631.8 620.497 631.556 632.728 634.613 C 644.203 637.482 660.229 634.613 672.121 634.613 C 683.486 634.613 696.788 634.801 707.294 637.427 C 717.66 640.019 729.941 638.834 741.059 638.834 C 752.314 638.834 763.57 638.834 774.825 638.834 C 785.281 638.834 795.749 638.026 805.777 636.02 C 819.747 633.226 833.112 625.649 842.356 621.951 C 852.929 617.722 858.585 613.078 870.494 610.696 C 884.443 607.906 894.352 600.511 904.26 598.034 C 915.16 595.309 933.98 582.412 942.246 575.524 C 955.137 564.781 969.513 558.105 980.232 547.386 C 991.05 536.568 1000.56 525.907 1009.78 513.62 C 1014.48 507.348 1018.33 497.866 1021.03 491.109 C 1024.94 481.344 1033.64 476.481 1037.92 465.785 C 1038.16 465.169 1038.85 464.847 1039.32 464.378 C 1043.11 460.591 1040.73 435.408 1040.73 429.206 C 1040.73 416.967 1039.32 405.094 1039.32 392.626 C 1039.32 387.104 1037.6 377.315 1036.51 372.93 C 1034.75 365.892 1030.87 358.831 1028.07 353.233 C 1023.79 344.67 1026.22 342.941 1019.63 336.35 C 1014.74 331.465 1012.06 327.641 1006.96 325.095 C 1001.77 322.5 1000.35 318.27 994.301 315.247 C 987.811 312.002 982.317 309.789 976.012 308.212 C 967.571 306.102 963.845 300.722 956.315 296.957 C 948.096 292.848 942.138 287.055 933.805 282.888 C 929.576 280.774 921.532 276.243 918.329 273.04 C 914.622 269.333 904.859 265.602 900.039 263.191 C 894.86 260.602 890.629 257.08 885.97 254.75 C 880.155 251.842 876.493 249.567 869.087 247.716 C 863.079 246.213 854.318 243.848 847.984 240.681 C 843.534 238.456 833.596 237.867 828.287 237.867 C 820.853 237.867 812.489 233.918 805.777 232.24 C 798.782 230.491 789.184 232.24 781.859 232.24 C 775.348 232.24 768.319 228.019 760.756 228.019 C 753.252 228.019 745.749 228.019 738.245 228.019 C 728.854 228.019 718.352 223.798 707.294 223.798 C 699.759 223.798 689.653 222.521 681.969 220.984 C 674.288 219.448 663.605 222.391 655.238 222.391 C 650.157 222.391 639.268 223.57 632.728 225.205 C 624.659 227.222 614.108 227.75 607.404 229.426 C 599.182 231.481 590.434 230.569 582.079 232.24 C 571.866 234.282 563.255 234.484 555.348 236.46 C 547.409 238.445 540.248 240.681 531.431 240.681 C 526.161 240.681 516.597 247.907 511.734 249.122 C 503.498 251.181 493.043 254.499 486.41 256.157 C 477.938 258.275 467.985 257.31 459.679 258.971 C 449.65 260.977 440.696 263.191 430.134 263.191 C 420.223 263.191 410.95 266.58 401.996 268.819 C 392.135 271.284 384.631 273.512 375.265 275.854 C 363.849 278.708 350.547 277.661 340.092 282.888 C 330.049 287.91 310.384 292.736 299.292 292.736 C 292.249 292.736 287.919 292.689 281.002 289.923 Z" id="imagebot_52"/>
  <path transform="translate(3.16205 10.2304) matrix(1 0 0 1 -5.16394 -75.0572)" fill="#ffd800" fill-rule="evenodd" stroke="black" stroke-width="4.4" stroke-miterlimit="4" d="M 770.621 325.974 C 772.067 329.456 785.145 330.308 790.318 331.601 C 796.952 333.26 803.208 333.065 808.608 334.415 C 814.257 335.827 821.273 337.23 828.304 338.636 C 836.64 340.303 839.775 343.668 846.594 347.077 C 851.11 349.335 849.408 364.018 849.408 369.588 C 849.408 377.714 849 386.246 850.815 393.505 C 852.267 399.314 857.392 401.524 859.256 408.981 C 860.64 414.515 868.649 419.326 870.511 423.05 C 872.398 426.823 877.972 431.917 881.766 435.712 C 886.028 439.974 888.213 444.972 891.615 448.374 C 897.214 453.973 900.467 458.634 904.277 462.443 C 909.386 467.552 913.283 470.231 916.939 475.105 C 921.515 481.207 928.677 488.25 933.822 493.395 C 937.613 497.186 937.301 507.389 939.449 511.685 C 941.834 516.454 940.578 525.459 939.449 529.974 C 938.058 535.539 931.788 539.042 928.194 542.636 C 922.534 548.297 919.934 550.987 914.125 553.892 C 909.619 556.145 905.3 561.31 901.463 565.147 C 897.946 568.664 892.318 570.071 888.801 573.588 C 885.853 576.536 876.997 580.194 876.139 580.623 C 875.876 580.755 862.333 576.688 857.849 577.809 C 852.329 579.189 846.24 581.766 839.559 583.437 C 833.807 584.875 829.352 587.133 822.677 590.471 C 813.47 595.075 811.421 593.012 811.421 584.844 C 811.421 577.807 802.977 573.577 801.573 567.961 C 799.692 560.437 796.974 557.734 793.132 553.892 C 789.987 550.747 788.716 543.265 787.504 538.416 C 785.854 531.816 782.294 527.424 780.47 520.126 C 779.286 515.393 775.026 508.648 772.028 504.65 C 767.936 499.194 764.971 493.365 760.773 487.767 C 755.598 480.867 754.282 478.687 752.331 470.885 C 750.765 464.62 749.808 459.383 748.111 452.595 C 747.02 448.232 739.593 440.275 736.856 435.712 C 733.578 430.25 732.594 422.886 731.228 417.422 C 729.346 409.896 727.518 402.967 724.193 396.319 C 721.742 391.416 722.787 383.245 722.787 376.622 C 722.787 368.43 723.851 362.517 725.6 355.519 C 727.526 347.817 728.968 345.116 734.042 340.043 C 740.719 333.366 743.366 331.601 752.331 331.601 C 760.429 331.601 761.542 325.974 770.621 325.974 Z" id="imagebot_51"/>
  <path transform="translate(3.16205 10.2304) matrix(1 0 0 1 -5.16394 -75.0572)" fill="#ff9d00" fill-rule="evenodd" stroke="black" stroke-width="4.4" stroke-miterlimit="4" d="M 589.855 600.902 C 593.598 596.345 603.72 594.622 612.366 592.461 C 620.919 590.322 631.083 591.054 640.504 591.054 C 646.97 591.054 653.46 595.348 658.793 596.682 C 666.48 598.603 671.546 602.354 677.083 605.123 C 685.661 609.412 686.591 610.266 692.559 602.309 C 698.184 594.808 707.477 594.425 712.256 589.647 C 718.205 583.698 735.467 584.548 743.207 582.612 C 752.755 580.226 763.811 581.206 774.159 581.206 C 787.636 581.206 782.426 577.159 782.601 576.985 C 783.571 576.014 773.112 565.042 772.752 564.323 C 768.675 556.169 764.679 555.948 762.904 548.847 C 761.62 543.71 761.659 535.427 760.09 529.15 C 758.342 522.159 756.582 516.507 753.056 509.454 C 750.037 503.416 746.61 498.515 743.207 493.978 C 739.293 488.759 736.633 482.235 733.359 475.688 C 730.227 469.424 727.667 461.362 726.325 455.991 C 725.659 453.329 718.91 445.383 716.476 440.515 C 713.581 434.725 712.694 428.731 709.442 422.226 C 705.981 415.303 705.537 410.827 703.814 403.936 C 702.359 398.117 700.842 390.641 699.593 385.646 C 697.878 378.784 695.409 373.021 691.152 368.763 C 684.743 362.354 682.1 362.632 672.862 360.322 C 666.55 358.744 657.744 358.653 653.166 357.508 C 646.097 355.741 639.089 355.044 632.062 353.288 C 622.205 350.823 623.286 346.588 615.179 354.694 C 610.408 359.466 603.524 362.129 599.703 365.95 C 594.385 371.268 588.221 375.969 582.821 380.019 C 577.045 384.35 575.406 385 571.565 392.681 C 567.509 400.794 563.124 396.444 563.124 409.564 C 563.124 417.491 569.387 426.629 571.565 432.074 C 572.284 433.869 572.503 435.826 572.972 437.702 C 575.239 446.768 576.732 457.422 580.007 467.247 C 582.57 474.936 581.414 485.53 581.414 493.978 C 581.414 500.975 582.956 512.811 584.228 517.895 C 586.453 526.796 584.887 536.009 587.041 544.626 C 588.587 550.81 589.653 560.701 591.262 567.137 C 592.745 573.07 594.049 582.505 595.483 588.24 C 597.479 596.227 598.735 599.126 589.855 600.902 Z" id="imagebot_50"/>
  <path transform="translate(3.16205 10.2304) matrix(1 0 0 1 -5.16394 -75.0572)" fill="#ff003b" fill-rule="evenodd" stroke="black" stroke-width="3.4" stroke-miterlimit="4" d="M 284.699 359.739 C 290.072 363.99 294.547 366.855 294.547 376.622 C 294.547 386.586 290.737 389.284 301.582 389.284 C 306.279 389.284 315.879 394.323 319.871 396.319 C 325.548 399.157 328.379 403.485 331.127 408.981 C 333.941 414.609 339.181 424.317 340.975 431.491 C 342.617 438.058 344.602 442.965 346.603 446.967 C 348.322 450.405 363.735 438.276 364.892 437.119 C 369.308 432.703 381.632 427.306 387.403 425.864 C 395.98 423.719 404.351 415.966 409.913 411.795 C 415.951 407.266 421.91 405.425 426.796 400.539 C 431.551 395.784 436.972 393.177 440.865 389.284 C 447.44 382.709 451.369 379.532 454.934 372.401 C 457.97 366.329 459.155 364.548 459.155 355.519 C 459.155 351.5 447.291 346.469 445.086 344.263 C 439.571 338.749 439.458 335.22 439.458 325.974 C 439.458 314.539 437.326 312.949 429.61 309.091 C 423.047 305.809 416.984 309.812 412.727 307.684 C 405.275 303.958 399.787 309.23 394.437 311.905 C 387.919 315.164 382.076 317.105 374.741 318.939 C 372.865 319.408 370.989 319.877 369.113 320.346 C 360.826 322.418 353.768 325.077 348.009 327.381 C 338.294 331.267 328.505 334.62 318.465 338.636 C 312.091 341.185 305.962 342.696 301.582 347.077 C 296.54 352.118 290.615 355.006 284.699 359.739 Z" id="imagebot_49"/>
  <path transform="translate(3.16205 10.2304) matrix(1 0 0 1 -5.16394 -75.0572)" fill="#0b19f6" fill-rule="evenodd" stroke="black" stroke-width="4.4" stroke-miterlimit="4" d="M 441.206 279.105 C 435.768 284.543 456.056 271.915 459.496 265.036 C 461.562 260.904 472.881 255.18 476.379 253.78 C 484.454 250.55 488.427 248.557 497.482 246.746 C 504.795 245.283 512.556 242.626 518.586 241.118 C 526.049 239.253 534.094 239.711 541.096 239.711 C 548.848 239.711 555.842 244.439 560.793 248.153 C 566.269 252.26 568.783 254.736 573.455 259.408 C 577.878 263.831 581.3 270.337 584.71 274.884 C 588.913 280.488 590.87 284.389 594.559 291.767 C 597.603 297.856 602.586 302.608 605.814 305.836 C 608.452 308.474 613.199 317.087 614.255 321.312 C 614.452 322.099 601.598 329.748 600.186 331.16 C 596.449 334.898 589.189 338.769 584.71 341.008 C 577.755 344.486 575.327 346.171 570.641 350.857 C 567.227 354.271 561.118 357.566 556.572 362.112 C 551.093 367.591 547.587 370.825 542.503 373.367 C 534.881 377.178 533.103 378.035 527.027 371.96 C 522.958 367.891 515.062 364.748 510.145 363.519 C 503.446 361.844 496.266 362.112 489.041 362.112 C 482.905 362.112 476.87 362.112 469.344 362.112 C 462.779 362.112 469.344 348.981 469.344 342.415 C 469.344 333.221 465.508 331.291 463.717 324.125 C 462.869 320.734 455.375 317.489 453.868 311.463 C 451.797 303.177 451.728 301.555 448.241 294.58 C 445.542 289.182 443.091 286.645 441.206 279.105 Z" id="imagebot_48"/>
  <path transform="translate(3.16205 10.2304) matrix(1 0 0 1 -5.16394 -75.0572)" fill="#2076f9" fill-rule="evenodd" stroke="black" stroke-width="4.4" stroke-miterlimit="4" d="M 641.669 340.069 C 638.516 332.219 655.933 339.692 662.773 341.821 C 671.005 344.383 677.674 345.145 683.876 347.076 C 691.522 349.455 696.12 350.058 700.759 355.833 C 708.309 365.233 704.11 372.426 707.793 354.082 C 709.626 344.956 714.951 338.164 719.049 333.063 C 722.566 328.684 728.193 326.933 731.711 322.554 C 736.982 315.991 744.429 315.513 750 312.045 C 757.434 307.418 755.426 305.789 748.594 301.535 C 743.112 298.123 741.246 285.963 740.152 280.517 C 739.049 275.026 731.834 266.81 730.304 263.001 C 727.666 256.434 725.476 249.23 723.269 243.734 C 719.967 235.512 714.828 236.36 714.828 224.467 C 714.828 220.265 701.641 216.86 697.945 215.709 C 690.767 213.475 683.767 217.461 676.842 217.461 C 668.19 217.461 663.486 219.212 654.331 219.212 C 647.297 219.212 640.262 219.212 633.228 219.212 C 623.05 219.212 616.009 220.964 605.09 220.964 C 595.759 220.964 590.005 222.594 583.986 224.467 C 575.46 227.121 571.632 232.841 571.324 233.225 C 569.071 236.03 583.374 246.856 583.986 247.237 C 589.942 250.945 597.014 259.953 600.869 264.753 C 606.138 271.312 609.943 277.801 614.938 284.02 C 620.916 291.462 623.453 294.62 627.6 299.784 C 631.83 305.049 633.343 314.37 634.635 320.802 C 636.095 328.075 637.525 331.47 641.669 340.069 Z" id="imagebot_47"/>
  <path transform="translate(3.16205 10.2304) matrix(1 0 0 1 -5.16394 -75.0572)" fill="#bfff00" fill-rule="evenodd" stroke="black" stroke-width="4.4" stroke-miterlimit="4" d="M 874.932 345.188 C 876.529 351.575 890.503 330.928 891.815 328.305 C 894.366 323.202 894.629 318.005 894.629 310.015 C 894.629 305.967 909.204 321.777 910.104 322.677 C 915.594 328.167 920.557 332.863 925.58 339.56 C 930.145 345.647 933.864 350.657 941.056 357.85 C 942.252 359.045 943.87 359.726 945.277 360.663 C 948.325 362.695 950.905 365.353 953.718 367.698 C 958.994 372.094 961.983 377.311 966.38 383.174 C 971.265 389.687 974.38 394.953 977.636 401.464 C 980.031 406.254 986.246 410.074 990.298 414.126 C 994.993 418.821 998.621 421.042 1002.96 425.381 C 1008.1 430.516 1012.5 434.134 1005.77 440.857 C 1001.11 445.52 998.643 451.088 997.332 456.333 C 995.424 463.966 993.562 471.415 991.705 478.843 C 990.382 484.135 980.109 487.455 977.636 488.691 C 973.39 490.814 969.712 500.319 967.787 504.167 C 965.227 509.288 960.499 495.218 957.939 490.098 C 955.457 485.135 949.473 481.632 946.684 478.843 C 941.848 474.007 940.328 469.674 935.429 464.774 C 931.234 460.58 926.084 458.244 921.36 453.519 C 917.118 449.277 912.835 444.995 908.698 440.857 C 903.45 435.609 901.984 432.737 897.442 428.195 C 893.617 424.37 892.556 419.088 887.594 414.126 C 882.025 408.557 882.208 404.08 880.56 395.836 C 879.336 389.718 877.984 384.129 876.339 377.546 C 874.805 371.411 876.339 362.804 876.339 356.443 C 876.339 352.522 874.932 351.164 874.932 345.188 Z" id="imagebot_46"/>
  <path transform="translate(3.16205 10.2304) matrix(1 0 0 1 -5.16394 -75.0572)" fill="#00ff8d" fill-rule="evenodd" stroke="black" stroke-width="4.4" stroke-miterlimit="4" d="M 737.27 223.755 C 737.27 223.48 759.43 223.755 766.336 223.755 C 774.277 223.755 781.099 223.473 790.557 225.4 C 798.781 227.076 807.272 230.336 814.778 230.336 C 823.984 230.336 830.879 235.271 840.614 235.271 C 850.65 235.271 855.743 238.865 861.606 241.852 C 867.303 244.754 872.17 250.97 877.753 256.659 C 882.405 261.398 885.918 270.005 889.057 276.401 C 891.895 282.185 890.489 291.953 889.057 297.789 C 886.425 308.512 883.525 312.351 879.368 320.822 C 875.415 328.877 869.544 331.139 864.835 332.338 C 862.929 332.824 850.287 322.459 847.073 320.822 C 841.945 318.209 833.441 317.349 827.696 315.886 C 819.06 313.686 809.565 314.241 800.246 314.241 C 787.278 314.241 787.506 315.154 782.483 312.596 C 776.06 309.324 782.717 296.382 777.639 291.208 C 772.322 285.791 768.392 281.786 763.106 276.401 C 757.968 271.166 757.861 262.695 753.418 256.659 C 749.05 250.725 746.757 244.321 745.344 238.562 C 744.114 233.548 740.544 229.314 737.27 223.755 Z" id="imagebot_45"/>
  <path transform="translate(3.16205 10.2304) matrix(1 0 0 1 -5.16394 -75.0572)" fill="#e40aac" fill-rule="evenodd" stroke="black" stroke-width="4.2" stroke-miterlimit="4" d="M 272.861 308.508 C 270.764 300.119 259.279 319.276 253.164 325.391 C 246.135 332.42 241.835 328.057 246.13 336.646 C 248.643 341.673 262.182 342.274 267.233 342.274 C 274.902 342.274 275.39 347.34 282.709 343.681 C 288.051 341.01 292.497 338.068 298.185 336.646 C 305.445 334.831 309.958 329.094 313.661 325.391 C 317.581 321.471 328.955 319.151 333.358 316.95 C 339.618 313.82 345.47 314.273 351.647 312.729 C 353.523 312.26 355.399 311.791 357.275 311.322 C 364.777 309.446 368.255 307.874 376.972 305.694 C 384.255 303.873 389.322 301.036 395.261 298.66 C 401.342 296.227 409.504 295.803 414.958 294.439 C 421.372 292.836 423.891 288.32 427.62 284.591 C 433.958 278.253 436.062 279.093 436.062 270.522 C 436.062 269.39 415.44 268.18 413.551 267.708 C 405.75 265.758 397.224 264.404 389.634 266.301 C 382.736 268.026 377.114 267.708 369.937 267.708 C 363.931 267.708 354.693 269.409 350.241 270.522 C 343.715 272.153 336.691 274.613 330.544 276.149 C 323.855 277.822 317.904 283.161 315.068 285.998 C 310.836 290.23 304.836 291.913 299.592 295.846 C 293.911 300.106 285.254 304.138 281.302 307.101 C 279.02 308.813 275.675 308.039 272.861 308.508 Z" id="imagebot_44"/>
  <path transform="translate(3.16205 10.2304) matrix(1 0 0 1 -5.16394 -75.0572)" fill="#f83e0f" fill-rule="evenodd" stroke="black" stroke-width="4.4" stroke-miterlimit="4" d="M 358.541 457.781 C 359.555 461.839 362.28 472.739 364.168 480.291 C 366.232 488.549 373.225 491.195 375.423 499.988 C 377.41 507.936 386.015 516.207 392.306 522.499 C 398.006 528.198 404.284 531.663 409.189 536.568 C 413.556 540.934 420.894 543.124 424.665 545.009 C 430.632 547.993 434.648 553.518 440.141 556.264 C 447.62 560.004 451.059 561.02 458.431 564.706 C 463.56 567.27 469.79 570.06 473.906 573.147 C 479.012 576.977 493.041 575.961 499.231 575.961 C 507.79 575.961 518.507 571.142 527.369 568.926 C 535.089 566.996 541.974 567.609 549.879 568.926 C 558.85 570.421 565.197 572.483 573.796 570.333 C 575.623 569.877 572.713 550.523 572.39 549.23 C 570.748 542.665 567.277 538.628 565.355 530.94 C 563.368 522.992 564.102 514.825 562.541 507.023 C 560.912 498.879 561.134 486.992 561.134 478.885 C 561.134 472.771 558.026 462.819 555.507 457.781 C 553.402 453.572 556.914 440.803 556.914 435.271 C 556.914 427.46 551.356 418.528 548.472 412.76 C 545.313 406.442 544.312 401.749 542.845 395.877 C 541.292 389.669 534.382 386.008 530.182 381.808 C 525.722 377.348 513.718 374.878 507.672 373.367 C 501.346 371.785 497.491 370.553 489.382 370.553 C 481.41 370.553 478.869 373.182 472.5 374.774 C 464.9 376.674 459.417 384.833 451.396 388.843 C 445.465 391.809 441.801 397.031 437.327 401.505 C 431.958 406.874 424.674 411.346 419.037 415.574 C 411.34 421.347 405.028 423.971 399.341 428.236 C 393.395 432.696 387.365 436.334 381.051 439.491 C 374.671 442.681 369.416 445.499 365.575 449.34 C 362.985 451.93 360.885 454.967 358.541 457.781 Z" id="imagebot_43"/>
  <path transform="translate(3.16205 10.2304) matrix(1 0 0 1 -5.16394 -75.0572)" fill="#79ff00" fill-rule="evenodd" stroke="black" stroke-width="4.4" stroke-miterlimit="4" d="M 904.266 270.192 C 896.873 275.836 910.616 271.912 919.582 274.194 C 925.608 275.727 938.557 279.348 941.803 282.652 C 948.928 289.906 961.404 293.988 971.25 296.852 C 979.086 299.131 986.352 305.328 991.398 307.896 C 999.143 311.838 1003.64 315.629 1008.45 320.518 C 1013.58 325.745 1015.38 330.735 1019.3 334.718 C 1022.57 338.048 1024.26 347.046 1025.5 352.073 C 1027.35 359.622 1027.23 368.482 1025.5 377.318 C 1023.69 386.51 1024.02 394.352 1022.4 400.984 C 1020 410.721 1008.2 399.151 1006.9 397.828 C 1003.52 394.393 1001.47 378.895 1000.7 375.74 C 999.43 370.58 992.547 363.625 989.848 359.962 C 985.006 353.39 979.083 350.517 972.8 348.918 C 965.842 347.147 958.934 337.958 955.751 334.718 C 950.69 329.566 946.445 325.242 941.803 318.94 C 937.738 313.424 933.023 308.425 927.854 303.163 C 923.275 298.501 919.688 294.85 915.455 290.541 C 909.533 284.513 905.192 280.304 903.056 271.608 C 901.335 264.601 908.363 280.619 904.266 270.192 Z" id="imagebot_42"/>
  <path transform="translate(3.16205 10.2304) matrix(1 0 0 1 -5.16394 -75.0572)" fill="url(#imagebot_37)" fill-rule="evenodd" stroke="black" stroke-width="4.2" stroke-miterlimit="4" id="imagebot_36" d="M 272.861 308.508 C 270.764 300.119 259.279 319.276 253.164 325.391 C 246.135 332.42 241.835 328.057 246.13 336.646 C 248.643 341.673 262.182 342.274 267.233 342.274 C 274.902 342.274 275.39 347.34 282.709 343.681 C 288.051 341.01 292.497 338.068 298.185 336.646 C 305.445 334.831 309.958 329.094 313.661 325.391 C 317.581 321.471 328.955 319.151 333.358 316.95 C 339.618 313.82 345.47 314.273 351.647 312.729 C 353.523 312.26 355.399 311.791 357.275 311.322 C 364.777 309.446 368.255 307.874 376.972 305.694 C 384.255 303.873 389.322 301.036 395.261 298.66 C 401.342 296.227 409.504 295.803 414.958 294.439 C 421.372 292.836 423.891 288.32 427.62 284.591 C 433.958 278.253 436.062 279.093 436.062 270.522 C 436.062 269.39 415.44 268.18 413.551 267.708 C 405.75 265.758 397.224 264.404 389.634 266.301 C 382.736 268.026 377.114 267.708 369.937 267.708 C 363.931 267.708 354.693 269.409 350.241 270.522 C 343.715 272.153 336.691 274.613 330.544 276.149 C 323.855 277.822 317.904 283.161 315.068 285.998 C 310.836 290.23 304.836 291.913 299.592 295.846 C 293.911 300.106 285.254 304.138 281.302 307.101 C 279.02 308.813 275.675 308.039 272.861 308.508 Z"/>
  <path transform="translate(3.16205 10.2304) matrix(1 0 0 1 -5.16394 -75.0572)" fill="url(#imagebot_35)" fill-rule="evenodd" stroke="black" stroke-width="3.4" stroke-miterlimit="4" id="imagebot_34" d="M 284.699 359.739 C 290.072 363.99 294.547 366.855 294.547 376.622 C 294.547 386.586 290.737 389.284 301.582 389.284 C 306.279 389.284 315.879 394.323 319.871 396.319 C 325.548 399.157 328.379 403.485 331.127 408.981 C 333.941 414.609 339.181 424.317 340.975 431.491 C 342.617 438.058 344.602 442.965 346.603 446.967 C 348.322 450.405 363.735 438.276 364.892 437.119 C 369.308 432.703 381.632 427.306 387.403 425.864 C 395.98 423.719 404.351 415.966 409.913 411.795 C 415.951 407.266 421.91 405.425 426.796 400.539 C 431.551 395.784 436.972 393.177 440.865 389.284 C 447.44 382.709 451.369 379.532 454.934 372.401 C 457.97 366.329 459.155 364.548 459.155 355.519 C 459.155 351.5 447.291 346.469 445.086 344.263 C 439.571 338.749 439.458 335.22 439.458 325.974 C 439.458 314.539 437.326 312.949 429.61 309.091 C 423.047 305.809 416.984 309.812 412.727 307.684 C 405.275 303.958 399.787 309.23 394.437 311.905 C 387.919 315.164 382.076 317.105 374.741 318.939 C 372.865 319.408 370.989 319.877 369.113 320.346 C 360.826 322.418 353.768 325.077 348.009 327.381 C 338.294 331.267 328.505 334.62 318.465 338.636 C 312.091 341.185 305.962 342.696 301.582 347.077 C 296.54 352.118 290.615 355.006 284.699 359.739 Z"/>
  <path transform="translate(3.16205 10.2304) matrix(1 0 0 1 -5.16394 -75.0572)" fill="url(#imagebot_33)" fill-rule="evenodd" stroke="black" stroke-width="4.4" stroke-miterlimit="4" id="imagebot_32" d="M 358.541 457.781 C 359.555 461.839 362.28 472.739 364.168 480.291 C 366.232 488.549 373.225 491.195 375.423 499.988 C 377.41 507.936 386.015 516.207 392.306 522.499 C 398.006 528.198 404.284 531.663 409.189 536.568 C 413.556 540.934 420.894 543.124 424.665 545.009 C 430.632 547.993 434.648 553.518 440.141 556.264 C 447.62 560.004 451.059 561.02 458.431 564.706 C 463.56 567.27 469.79 570.06 473.906 573.147 C 479.012 576.977 493.041 575.961 499.231 575.961 C 507.79 575.961 518.507 571.142 527.369 568.926 C 535.089 566.996 541.974 567.609 549.879 568.926 C 558.85 570.421 565.197 572.483 573.796 570.333 C 575.623 569.877 572.713 550.523 572.39 549.23 C 570.748 542.665 567.277 538.628 565.355 530.94 C 563.368 522.992 564.102 514.825 562.541 507.023 C 560.912 498.879 561.134 486.992 561.134 478.885 C 561.134 472.771 558.026 462.819 555.507 457.781 C 553.402 453.572 556.914 440.803 556.914 435.271 C 556.914 427.46 551.356 418.528 548.472 412.76 C 545.313 406.442 544.312 401.749 542.845 395.877 C 541.292 389.669 534.382 386.008 530.182 381.808 C 525.722 377.348 513.718 374.878 507.672 373.367 C 501.346 371.785 497.491 370.553 489.382 370.553 C 481.41 370.553 478.869 373.182 472.5 374.774 C 464.9 376.674 459.417 384.833 451.396 388.843 C 445.465 391.809 441.801 397.031 437.327 401.505 C 431.958 406.874 424.674 411.346 419.037 415.574 C 411.34 421.347 405.028 423.971 399.341 428.236 C 393.395 432.696 387.365 436.334 381.051 439.491 C 374.671 442.681 369.416 445.499 365.575 449.34 C 362.985 451.93 360.885 454.967 358.541 457.781 Z"/>
  <path transform="translate(3.16205 10.2304) matrix(1 0 0 1 -5.16394 -75.0572)" fill="url(#imagebot_31)" fill-rule="evenodd" stroke="black" stroke-width="4.4" stroke-miterlimit="4" id="imagebot_30" d="M 590.741 598.431 C 594.45 593.944 604.481 592.247 613.049 590.119 C 621.525 588.014 631.597 588.734 640.932 588.734 C 647.341 588.734 653.772 592.962 659.057 594.275 C 666.674 596.167 671.694 599.86 677.182 602.586 C 685.682 606.809 686.604 607.65 692.518 599.816 C 698.092 592.431 707.301 592.054 712.036 587.349 C 717.932 581.491 735.038 582.328 742.709 580.423 C 752.17 578.073 763.127 579.037 773.381 579.037 C 786.736 579.037 781.574 575.053 781.746 574.882 C 782.708 573.926 772.343 563.123 771.987 562.415 C 767.947 554.386 763.987 554.169 762.227 547.177 C 760.955 542.119 760.994 533.964 759.439 527.784 C 757.707 520.9 755.963 515.335 752.468 508.391 C 749.477 502.446 746.081 497.62 742.709 493.153 C 738.83 488.015 736.193 481.591 732.949 475.145 C 729.846 468.978 727.309 461.04 725.978 455.752 C 725.319 453.13 718.631 445.306 716.219 440.514 C 713.35 434.813 712.471 428.911 709.248 422.506 C 705.818 415.69 705.378 411.283 703.671 404.498 C 702.23 398.769 700.726 391.408 699.489 386.49 C 697.788 379.733 695.342 374.059 691.123 369.867 C 684.772 363.556 682.153 363.83 672.999 361.556 C 666.744 360.002 658.017 359.912 653.48 358.785 C 646.476 357.045 639.531 356.359 632.567 354.63 C 622.799 352.203 623.87 348.033 615.837 356.015 C 611.109 360.713 604.287 363.335 600.501 367.097 C 595.23 372.333 589.122 376.961 583.77 380.949 C 578.047 385.214 576.423 385.854 572.617 393.416 C 568.597 401.404 564.252 397.121 564.252 410.039 C 564.252 417.844 570.458 426.841 572.617 432.203 C 573.328 433.97 573.546 435.897 574.011 437.744 C 576.257 446.671 577.737 457.161 580.982 466.833 C 583.522 474.405 582.376 484.835 582.376 493.153 C 582.376 500.043 583.905 511.696 585.165 516.702 C 587.37 525.465 585.818 534.537 587.953 543.021 C 589.485 549.11 590.541 558.848 592.136 565.185 C 593.605 571.027 594.897 580.316 596.318 585.964 C 598.297 593.828 599.541 596.682 590.741 598.431 Z"/>
  <path transform="translate(3.16205 10.2304) matrix(1 0 0 1 -5.16394 -75.0572)" fill="url(#imagebot_29)" fill-rule="evenodd" stroke="black" stroke-width="4.4" stroke-miterlimit="4" id="imagebot_28" d="M 770.621 325.974 C 772.067 329.456 785.145 330.308 790.318 331.601 C 796.952 333.26 803.208 333.065 808.608 334.415 C 814.257 335.827 821.273 337.23 828.304 338.636 C 836.64 340.303 839.775 343.668 846.594 347.077 C 851.11 349.335 849.408 364.018 849.408 369.588 C 849.408 377.714 849 386.246 850.815 393.505 C 852.267 399.314 857.392 401.524 859.256 408.981 C 860.64 414.515 868.649 419.326 870.511 423.05 C 872.398 426.823 877.972 431.917 881.766 435.712 C 886.028 439.974 888.213 444.972 891.615 448.374 C 897.214 453.973 900.467 458.634 904.277 462.443 C 909.386 467.552 913.283 470.231 916.939 475.105 C 921.515 481.207 928.677 488.25 933.822 493.395 C 937.613 497.186 937.301 507.389 939.449 511.685 C 941.834 516.454 940.578 525.459 939.449 529.974 C 938.058 535.539 931.788 539.042 928.194 542.636 C 922.534 548.297 919.934 550.987 914.125 553.892 C 909.619 556.145 905.3 561.31 901.463 565.147 C 897.946 568.664 892.318 570.071 888.801 573.588 C 885.853 576.536 876.997 580.194 876.139 580.623 C 875.876 580.755 862.333 576.688 857.849 577.809 C 852.329 579.189 846.24 581.766 839.559 583.437 C 833.807 584.875 829.352 587.133 822.677 590.471 C 813.47 595.075 811.421 593.012 811.421 584.844 C 811.421 577.807 802.977 573.577 801.573 567.961 C 799.692 560.437 796.974 557.734 793.132 553.892 C 789.987 550.747 788.716 543.265 787.504 538.416 C 785.854 531.816 782.294 527.424 780.47 520.126 C 779.286 515.393 775.026 508.648 772.028 504.65 C 767.936 499.194 764.971 493.365 760.773 487.767 C 755.598 480.867 754.282 478.687 752.331 470.885 C 750.765 464.62 749.808 459.383 748.111 452.595 C 747.02 448.232 739.593 440.275 736.856 435.712 C 733.578 430.25 732.594 422.886 731.228 417.422 C 729.346 409.896 727.518 402.967 724.193 396.319 C 721.742 391.416 722.787 383.245 722.787 376.622 C 722.787 368.43 723.851 362.517 725.6 355.519 C 727.526 347.817 728.968 345.116 734.042 340.043 C 740.719 333.366 743.366 331.601 752.331 331.601 C 760.429 331.601 761.542 325.974 770.621 325.974 Z"/>
  <path transform="translate(3.16205 10.2304) matrix(1 0 0 1 -5.16394 -75.0572)" fill="url(#imagebot_27)" fill-rule="evenodd" stroke="black" stroke-width="4.4" stroke-miterlimit="4" id="imagebot_26" d="M 874.932 345.188 C 876.529 351.575 890.503 330.928 891.815 328.305 C 894.366 323.202 894.629 318.005 894.629 310.015 C 894.629 305.967 909.204 321.777 910.104 322.677 C 915.594 328.167 920.557 332.863 925.58 339.56 C 930.145 345.647 933.864 350.657 941.056 357.85 C 942.252 359.045 943.87 359.726 945.277 360.663 C 948.325 362.695 950.905 365.353 953.718 367.698 C 958.994 372.094 961.983 377.311 966.38 383.174 C 971.265 389.687 974.38 394.953 977.636 401.464 C 980.031 406.254 986.246 410.074 990.298 414.126 C 994.993 418.821 998.621 421.042 1002.96 425.381 C 1008.1 430.516 1012.5 434.134 1005.77 440.857 C 1001.11 445.52 998.643 451.088 997.332 456.333 C 995.424 463.966 993.562 471.415 991.705 478.843 C 990.382 484.135 980.109 487.455 977.636 488.691 C 973.39 490.814 969.712 500.319 967.787 504.167 C 965.227 509.288 960.499 495.218 957.939 490.098 C 955.457 485.135 949.473 481.632 946.684 478.843 C 941.848 474.007 940.328 469.674 935.429 464.774 C 931.234 460.58 926.084 458.244 921.36 453.519 C 917.118 449.277 912.835 444.995 908.698 440.857 C 903.45 435.609 901.984 432.737 897.442 428.195 C 893.617 424.37 892.556 419.088 887.594 414.126 C 882.025 408.557 882.208 404.08 880.56 395.836 C 879.336 389.718 877.984 384.129 876.339 377.546 C 874.805 371.411 876.339 362.804 876.339 356.443 C 876.339 352.522 874.932 351.164 874.932 345.188 Z"/>
  <path transform="translate(3.16205 10.2304) matrix(1 0 0 1 -5.16394 -75.0572)" fill="url(#imagebot_25)" fill-rule="evenodd" stroke="black" stroke-width="4.4" stroke-miterlimit="4" d="M 904.697 267.606 C 914.64 283.893 935.336 267.934 945.657 285.863 C 968.29 298.262 996.236 303.482 1012.54 325.383 C 1025.5 340.063 1029.45 360.562 1025.3 379.408 C 1031.21 398.95 1007.23 413.337 1003.31 388.121 C 1001.16 368.874 988.003 353.892 970.382 346.749 C 950.631 335.747 940.667 313.784 924.055 299.011 C 911.353 288.706 906.679 284.299 904.697 267.606 Z" id="imagebot_24"/>
  <path transform="translate(3.16205 10.2304) matrix(1 0 0 1 -5.16394 -75.0572)" fill="url(#imagebot_23)" fill-rule="evenodd" stroke="black" stroke-width="4.4" stroke-miterlimit="4" id="imagebot_22" d="M 737.27 223.755 C 737.27 223.48 759.43 223.755 766.336 223.755 C 774.277 223.755 781.099 223.473 790.557 225.4 C 798.781 227.076 807.272 230.336 814.778 230.336 C 823.984 230.336 830.879 235.271 840.614 235.271 C 850.65 235.271 855.743 238.865 861.606 241.852 C 867.303 244.754 872.17 250.97 877.753 256.659 C 882.405 261.398 885.918 270.005 889.057 276.401 C 891.895 282.185 890.489 291.953 889.057 297.789 C 886.425 308.512 883.525 312.351 879.368 320.822 C 875.415 328.877 869.544 331.139 864.835 332.338 C 862.929 332.824 850.287 322.459 847.073 320.822 C 841.945 318.209 833.441 317.349 827.696 315.886 C 819.06 313.686 809.565 314.241 800.246 314.241 C 787.278 314.241 787.506 315.154 782.483 312.596 C 776.06 309.324 782.717 296.382 777.639 291.208 C 772.322 285.791 768.392 281.786 763.106 276.401 C 757.968 271.166 757.861 262.695 753.418 256.659 C 749.05 250.725 746.757 244.321 745.344 238.562 C 744.114 233.548 740.544 229.314 737.27 223.755 Z"/>
  <path transform="translate(3.16205 10.2304) matrix(1 0 0 1 -5.16394 -75.0572)" fill="url(#imagebot_21)" fill-rule="evenodd" stroke="black" stroke-width="4.4" stroke-miterlimit="4" id="imagebot_20" d="M 641.669 340.069 C 638.516 332.219 655.933 339.692 662.773 341.821 C 671.005 344.383 677.674 345.145 683.876 347.076 C 691.522 349.455 696.12 350.058 700.759 355.833 C 708.309 365.233 704.11 372.426 707.793 354.082 C 709.626 344.956 714.951 338.164 719.049 333.063 C 722.566 328.684 728.193 326.933 731.711 322.554 C 736.982 315.991 744.429 315.513 750 312.045 C 757.434 307.418 755.426 305.789 748.594 301.535 C 743.112 298.123 741.246 285.963 740.152 280.517 C 739.049 275.026 731.834 266.81 730.304 263.001 C 727.666 256.434 725.476 249.23 723.269 243.734 C 719.967 235.512 714.828 236.36 714.828 224.467 C 714.828 220.265 701.641 216.86 697.945 215.709 C 690.767 213.475 683.767 217.461 676.842 217.461 C 668.19 217.461 663.486 219.212 654.331 219.212 C 647.297 219.212 640.262 219.212 633.228 219.212 C 623.05 219.212 616.009 220.964 605.09 220.964 C 595.759 220.964 590.005 222.594 583.986 224.467 C 575.46 227.121 571.632 232.841 571.324 233.225 C 569.071 236.03 583.374 246.856 583.986 247.237 C 589.942 250.945 597.014 259.953 600.869 264.753 C 606.138 271.312 609.943 277.801 614.938 284.02 C 620.916 291.462 623.453 294.62 627.6 299.784 C 631.83 305.049 633.343 314.37 634.635 320.802 C 636.095 328.075 637.525 331.47 641.669 340.069 Z"/>
  <path transform="translate(3.16205 10.2304) matrix(1 0 0 1 -5.16394 -75.0572)" fill="url(#imagebot_19)" fill-rule="evenodd" stroke="black" stroke-width="4.4" stroke-miterlimit="4" id="imagebot_18" d="M 441.206 279.105 C 435.768 284.543 456.056 271.915 459.496 265.036 C 461.562 260.904 472.881 255.18 476.379 253.78 C 484.454 250.55 488.427 248.557 497.482 246.746 C 504.795 245.283 512.556 242.626 518.586 241.118 C 526.049 239.253 534.094 239.711 541.096 239.711 C 548.848 239.711 555.842 244.439 560.793 248.153 C 566.269 252.26 568.783 254.736 573.455 259.408 C 577.878 263.831 581.3 270.337 584.71 274.884 C 588.913 280.488 590.87 284.389 594.559 291.767 C 597.603 297.856 602.586 302.608 605.814 305.836 C 608.452 308.474 613.199 317.087 614.255 321.312 C 614.452 322.099 601.598 329.748 600.186 331.16 C 596.449 334.898 589.189 338.769 584.71 341.008 C 577.755 344.486 575.327 346.171 570.641 350.857 C 567.227 354.271 561.118 357.566 556.572 362.112 C 551.093 367.591 547.587 370.825 542.503 373.367 C 534.881 377.178 533.103 378.035 527.027 371.96 C 522.958 367.891 515.062 364.748 510.145 363.519 C 503.446 361.844 496.266 362.112 489.041 362.112 C 482.905 362.112 476.87 362.112 469.344 362.112 C 462.779 362.112 469.344 348.981 469.344 342.415 C 469.344 333.221 465.508 331.291 463.717 324.125 C 462.869 320.734 455.375 317.489 453.868 311.463 C 451.797 303.177 451.728 301.555 448.241 294.58 C 445.542 289.182 443.091 286.645 441.206 279.105 Z"/>
  <g transform="translate(3.16205 10.2304) matrix(1 0 0 1 -5.16394 -75.0572)" id="imagebot_3">
   <g stroke="black" transform="translate(42.72217,-455.3286)" id="imagebot_11">
    <path fill="#eaefe6" fill-rule="nonzero" stroke="black" stroke-width="4.4" stroke-miterlimit="4" stroke-dashoffset="0" id="imagebot_17" d="M 74.5657 793.492 A 25.3242 26.7311 0 1 1 23.9173 793.492 A 25.3242 26.7311 0 1 1 74.5657 793.492 Z"/>
    <path fill="url(#imagebot_142)" fill-rule="nonzero" stroke="black" stroke-width="4.4" stroke-miterlimit="4" stroke-dashoffset="0" d="M 74.5657 793.492 A 25.3242 26.7311 0 1 1 23.9173 793.492 A 25.3242 26.7311 0 1 1 74.5657 793.492 Z" id="imagebot_15"/>
    <path fill="#000906" fill-rule="nonzero" stroke="black" stroke-width="4.4" stroke-miterlimit="4" stroke-dashoffset="0" id="imagebot_14" d="M58.6296,806.71405A7.90009,6.75731 0 1 1 42.82943,806.71405A7.90009,6.75731 0 1 1 58.6296,806.71405z"/>
    <path fill="url(#imagebot_13)" fill-rule="nonzero" stroke="black" stroke-width="4.4" stroke-miterlimit="4" stroke-dashoffset="0" d="M58.6296,806.71405A7.90009,6.75731 0 1 1 42.82943,806.71405A7.90009,6.75731 0 1 1 58.6296,806.71405z" id="imagebot_12"/>
   </g>
   <path fill="#eaefe6" fill-rule="nonzero" stroke="black" stroke-width="4.4" stroke-miterlimit="4" stroke-dashoffset="0" id="imagebot_10" d="M 117.288 338.164 A 25.3242 26.7311 0 1 1 66.6395 338.164 A 25.3242 26.7311 0 1 1 117.288 338.164 Z"/>
   <path fill="#fff6f6" fill-rule="nonzero" stroke="black" stroke-width="4.4" stroke-miterlimit="4" stroke-dashoffset="0" d="M 117.288 338.164 A 25.3242 26.7311 0 1 1 66.6395 338.164 A 25.3242 26.7311 0 1 1 117.288 338.164 Z" id="imagebot_9"/>
   <path fill="url(#imagebot_141)" fill-rule="nonzero" stroke="black" stroke-width="4.4" stroke-miterlimit="4" stroke-dashoffset="0" id="imagebot_7" d="M 117.288 338.164 A 25.3242 26.7311 0 1 1 66.6395 338.164 A 25.3242 26.7311 0 1 1 117.288 338.164 Z"/>
   <path fill="#020202" fill-rule="nonzero" stroke="black" stroke-width="4.4" stroke-miterlimit="4" stroke-dashoffset="0" d="M 99.1967 351.601 A 7.90009 6.75731 0 1 1 83.3966 351.601 A 7.90009 6.75731 0 1 1 99.1967 351.601 Z" id="imagebot_6"/>
   <path fill="url(#imagebot_5)" fill-rule="nonzero" stroke-width="4.4" stroke-miterlimit="4" stroke-dashoffset="0" id="imagebot_4" d="M 98.5502 351.385 A 7.90009 6.75731 0 1 1 82.7501 351.385 A 7.90009 6.75731 0 1 1 98.5502 351.385 Z"/>
  </g>
  <title>imagebot_2</title>
 </g>
 <metadata>image/svg+xmlOpen Clip Art LibraryFunny turtle with santa hat2007-01-01T04:55:56http://openclipart.org/detail/2710/funny-turtle-with-santa-hat-by-machovkaMachovkaanimalanimalcartooncartoonchristmaschristmasclip artclipartfunnyfunnyhathatimagemediamulticolormulticolorpngpublic domainsantasantasvgturtleturtlexmasxmas</metadata>
</svg>